<svg xmlns="http://www.w3.org/2000/svg" width="1220" height="820" viewBox="0 0 1220 820">
<style>
svg{background:#f8fafc;color:#111827;font-family:Segoe UI,Arial,sans-serif}
.title{font-size:24px;font-weight:700;fill:#111827}
.subtitle,.legend{font-size:13px;fill:#4b5563}
.plot-bg{fill:#ffffff;stroke:#d1d5db;stroke-width:1}
.grid{stroke:#e5e7eb;stroke-width:1}
.axis{stroke:#374151;stroke-width:1.4}
.tick{font-size:12px;fill:#4b5563}
.axis-label{font-size:14px;font-weight:650;fill:#374151}
.side-title{font-size:14px;font-weight:700;fill:#111827}
</style>
<text x="86" y="34" class="title">PathL raw length distribution</text>
<text x="1010" y="34" text-anchor="end" class="subtitle">pathl_v22.csv; stacked by group status</text>
<text x="86" y="48" class="side-title">PathLength distribution</text>
<rect x="86" y="66" width="924" height="285" class="plot-bg"/>
<line x1="86" y1="351.00" x2="1010" y2="351.00" class="grid"/>
<text x="74" y="355.00" text-anchor="end" class="tick">0</text>
<line x1="86" y1="303.50" x2="1010" y2="303.50" class="grid"/>
<text x="74" y="307.50" text-anchor="end" class="tick">1</text>
<line x1="86" y1="256.00" x2="1010" y2="256.00" class="grid"/>
<text x="74" y="260.00" text-anchor="end" class="tick">2</text>
<line x1="86" y1="208.50" x2="1010" y2="208.50" class="grid"/>
<text x="74" y="212.50" text-anchor="end" class="tick">3</text>
<line x1="86" y1="161.00" x2="1010" y2="161.00" class="grid"/>
<text x="74" y="165.00" text-anchor="end" class="tick">4</text>
<line x1="86" y1="113.50" x2="1010" y2="113.50" class="grid"/>
<text x="74" y="117.50" text-anchor="end" class="tick">5</text>
<line x1="86" y1="66.00" x2="1010" y2="66.00" class="grid"/>
<text x="74" y="70.00" text-anchor="end" class="tick">6</text>
<rect x="87.00" y="256.00" width="25.18" height="95.00" fill="#94a3b8" opacity="0.82"><title>PathLength [mm]: 4.2325..4.5217&#10;total=3, ok=2, distance=0, branch/incomplete=1</title></rect>
<rect x="87.00" y="208.50" width="25.18" height="47.50" fill="#dc2626" opacity="0.82"><title>PathLength [mm]: 4.2325..4.5217&#10;total=3, ok=2, distance=0, branch/incomplete=1</title></rect>
<rect x="141.35" y="303.50" width="25.18" height="47.50" fill="#94a3b8" opacity="0.82"><title>PathLength [mm]: 4.8108..5.1000&#10;total=2, ok=1, distance=0, branch/incomplete=1</title></rect>
<rect x="141.35" y="256.00" width="25.18" height="47.50" fill="#dc2626" opacity="0.82"><title>PathLength [mm]: 4.8108..5.1000&#10;total=2, ok=1, distance=0, branch/incomplete=1</title></rect>
<rect x="222.88" y="303.50" width="25.18" height="47.50" fill="#94a3b8" opacity="0.82"><title>PathLength [mm]: 5.6783..5.9675&#10;total=2, ok=1, distance=0, branch/incomplete=1</title></rect>
<rect x="222.88" y="256.00" width="25.18" height="47.50" fill="#dc2626" opacity="0.82"><title>PathLength [mm]: 5.6783..5.9675&#10;total=2, ok=1, distance=0, branch/incomplete=1</title></rect>
<rect x="277.24" y="303.50" width="25.18" height="47.50" fill="#94a3b8" opacity="0.82"><title>PathLength [mm]: 6.2567..6.5458&#10;total=2, ok=1, distance=0, branch/incomplete=1</title></rect>
<rect x="277.24" y="256.00" width="25.18" height="47.50" fill="#dc2626" opacity="0.82"><title>PathLength [mm]: 6.2567..6.5458&#10;total=2, ok=1, distance=0, branch/incomplete=1</title></rect>
<rect x="304.41" y="256.00" width="25.18" height="95.00" fill="#94a3b8" opacity="0.82"><title>PathLength [mm]: 6.5458..6.8350&#10;total=4, ok=2, distance=0, branch/incomplete=2</title></rect>
<rect x="304.41" y="161.00" width="25.18" height="95.00" fill="#dc2626" opacity="0.82"><title>PathLength [mm]: 6.5458..6.8350&#10;total=4, ok=2, distance=0, branch/incomplete=2</title></rect>
<rect x="331.59" y="256.00" width="25.18" height="95.00" fill="#94a3b8" opacity="0.82"><title>PathLength [mm]: 6.8350..7.1242&#10;total=4, ok=2, distance=0, branch/incomplete=2</title></rect>
<rect x="331.59" y="161.00" width="25.18" height="95.00" fill="#dc2626" opacity="0.82"><title>PathLength [mm]: 6.8350..7.1242&#10;total=4, ok=2, distance=0, branch/incomplete=2</title></rect>
<rect x="385.94" y="303.50" width="25.18" height="47.50" fill="#94a3b8" opacity="0.82"><title>PathLength [mm]: 7.4134..7.7025&#10;total=2, ok=1, distance=0, branch/incomplete=1</title></rect>
<rect x="385.94" y="256.00" width="25.18" height="47.50" fill="#dc2626" opacity="0.82"><title>PathLength [mm]: 7.4134..7.7025&#10;total=2, ok=1, distance=0, branch/incomplete=1</title></rect>
<rect x="467.47" y="303.50" width="25.18" height="47.50" fill="#94a3b8" opacity="0.82"><title>PathLength [mm]: 8.2809..8.5700&#10;total=4, ok=1, distance=1, branch/incomplete=2</title></rect>
<rect x="467.47" y="256.00" width="25.18" height="47.50" fill="#f59e0b" opacity="0.82"><title>PathLength [mm]: 8.2809..8.5700&#10;total=4, ok=1, distance=1, branch/incomplete=2</title></rect>
<rect x="467.47" y="161.00" width="25.18" height="95.00" fill="#dc2626" opacity="0.82"><title>PathLength [mm]: 8.2809..8.5700&#10;total=4, ok=1, distance=1, branch/incomplete=2</title></rect>
<rect x="521.82" y="256.00" width="25.18" height="95.00" fill="#94a3b8" opacity="0.82"><title>PathLength [mm]: 8.8592..9.1484&#10;total=4, ok=2, distance=0, branch/incomplete=2</title></rect>
<rect x="521.82" y="161.00" width="25.18" height="95.00" fill="#dc2626" opacity="0.82"><title>PathLength [mm]: 8.8592..9.1484&#10;total=4, ok=2, distance=0, branch/incomplete=2</title></rect>
<rect x="549.00" y="208.50" width="25.18" height="142.50" fill="#94a3b8" opacity="0.82"><title>PathLength [mm]: 9.1484..9.4376&#10;total=6, ok=3, distance=0, branch/incomplete=3</title></rect>
<rect x="549.00" y="66.00" width="25.18" height="142.50" fill="#dc2626" opacity="0.82"><title>PathLength [mm]: 9.1484..9.4376&#10;total=6, ok=3, distance=0, branch/incomplete=3</title></rect>
<rect x="576.18" y="303.50" width="25.18" height="47.50" fill="#94a3b8" opacity="0.82"><title>PathLength [mm]: 9.4376..9.7267&#10;total=2, ok=1, distance=0, branch/incomplete=1</title></rect>
<rect x="576.18" y="256.00" width="25.18" height="47.50" fill="#dc2626" opacity="0.82"><title>PathLength [mm]: 9.4376..9.7267&#10;total=2, ok=1, distance=0, branch/incomplete=1</title></rect>
<rect x="603.35" y="256.00" width="25.18" height="95.00" fill="#94a3b8" opacity="0.82"><title>PathLength [mm]: 9.7267..10.0159&#10;total=4, ok=2, distance=0, branch/incomplete=2</title></rect>
<rect x="603.35" y="161.00" width="25.18" height="95.00" fill="#dc2626" opacity="0.82"><title>PathLength [mm]: 9.7267..10.0159&#10;total=4, ok=2, distance=0, branch/incomplete=2</title></rect>
<rect x="712.06" y="303.50" width="25.18" height="47.50" fill="#f59e0b" opacity="0.82"><title>PathLength [mm]: 10.8834..11.1726&#10;total=2, ok=0, distance=1, branch/incomplete=1</title></rect>
<rect x="712.06" y="256.00" width="25.18" height="47.50" fill="#dc2626" opacity="0.82"><title>PathLength [mm]: 10.8834..11.1726&#10;total=2, ok=0, distance=1, branch/incomplete=1</title></rect>
<rect x="739.24" y="208.50" width="25.18" height="142.50" fill="#94a3b8" opacity="0.82"><title>PathLength [mm]: 11.1726..11.4618&#10;total=6, ok=3, distance=0, branch/incomplete=3</title></rect>
<rect x="739.24" y="66.00" width="25.18" height="142.50" fill="#dc2626" opacity="0.82"><title>PathLength [mm]: 11.1726..11.4618&#10;total=6, ok=3, distance=0, branch/incomplete=3</title></rect>
<rect x="766.41" y="208.50" width="25.18" height="142.50" fill="#94a3b8" opacity="0.82"><title>PathLength [mm]: 11.4618..11.7509&#10;total=6, ok=3, distance=0, branch/incomplete=3</title></rect>
<rect x="766.41" y="66.00" width="25.18" height="142.50" fill="#dc2626" opacity="0.82"><title>PathLength [mm]: 11.4618..11.7509&#10;total=6, ok=3, distance=0, branch/incomplete=3</title></rect>
<rect x="793.59" y="256.00" width="25.18" height="95.00" fill="#94a3b8" opacity="0.82"><title>PathLength [mm]: 11.7509..12.0401&#10;total=4, ok=2, distance=0, branch/incomplete=2</title></rect>
<rect x="793.59" y="161.00" width="25.18" height="95.00" fill="#dc2626" opacity="0.82"><title>PathLength [mm]: 11.7509..12.0401&#10;total=4, ok=2, distance=0, branch/incomplete=2</title></rect>
<rect x="820.76" y="303.50" width="25.18" height="47.50" fill="#94a3b8" opacity="0.82"><title>PathLength [mm]: 12.0401..12.3293&#10;total=2, ok=1, distance=0, branch/incomplete=1</title></rect>
<rect x="820.76" y="256.00" width="25.18" height="47.50" fill="#dc2626" opacity="0.82"><title>PathLength [mm]: 12.0401..12.3293&#10;total=2, ok=1, distance=0, branch/incomplete=1</title></rect>
<rect x="929.47" y="303.50" width="25.18" height="47.50" fill="#94a3b8" opacity="0.82"><title>PathLength [mm]: 13.1968..13.4860&#10;total=1, ok=1, distance=0, branch/incomplete=0</title></rect>
<rect x="956.65" y="303.50" width="25.18" height="47.50" fill="#94a3b8" opacity="0.82"><title>PathLength [mm]: 13.4860..13.7751&#10;total=2, ok=1, distance=0, branch/incomplete=1</title></rect>
<rect x="956.65" y="256.00" width="25.18" height="47.50" fill="#dc2626" opacity="0.82"><title>PathLength [mm]: 13.4860..13.7751&#10;total=2, ok=1, distance=0, branch/incomplete=1</title></rect>
<rect x="983.82" y="303.50" width="25.18" height="47.50" fill="#94a3b8" opacity="0.82"><title>PathLength [mm]: 13.7751..14.0643&#10;total=2, ok=1, distance=0, branch/incomplete=1</title></rect>
<rect x="983.82" y="256.00" width="25.18" height="47.50" fill="#dc2626" opacity="0.82"><title>PathLength [mm]: 13.7751..14.0643&#10;total=2, ok=1, distance=0, branch/incomplete=1</title></rect>
<line x1="252.11" y1="66" x2="252.11" y2="351" class="grid"/>
<text x="252.11" y="376" text-anchor="middle" class="tick">6</text>
<line x1="440.07" y1="66" x2="440.07" y2="351" class="grid"/>
<text x="440.07" y="376" text-anchor="middle" class="tick">8</text>
<line x1="628.03" y1="66" x2="628.03" y2="351" class="grid"/>
<text x="628.03" y="376" text-anchor="middle" class="tick">10</text>
<line x1="816.00" y1="66" x2="816.00" y2="351" class="grid"/>
<text x="816.00" y="376" text-anchor="middle" class="tick">12</text>
<line x1="1003.96" y1="66" x2="1003.96" y2="351" class="grid"/>
<text x="1003.96" y="376" text-anchor="middle" class="tick">14</text>
<line x1="86" y1="351" x2="1010" y2="351" class="axis"/>
<line x1="86" y1="66" x2="86" y2="351" class="axis"/>
<text x="548.0" y="405" text-anchor="middle" class="axis-label">PathLength [mm]</text>
<text x="86" y="438" class="side-title">RotLength distribution</text>
<rect x="86" y="456" width="924" height="285" class="plot-bg"/>
<line x1="86" y1="741.00" x2="1010" y2="741.00" class="grid"/>
<text x="74" y="745.00" text-anchor="end" class="tick">0</text>
<line x1="86" y1="684.00" x2="1010" y2="684.00" class="grid"/>
<text x="74" y="688.00" text-anchor="end" class="tick">2</text>
<line x1="86" y1="627.00" x2="1010" y2="627.00" class="grid"/>
<text x="74" y="631.00" text-anchor="end" class="tick">4</text>
<line x1="86" y1="570.00" x2="1010" y2="570.00" class="grid"/>
<text x="74" y="574.00" text-anchor="end" class="tick">6</text>
<line x1="86" y1="513.00" x2="1010" y2="513.00" class="grid"/>
<text x="74" y="517.00" text-anchor="end" class="tick">8</text>
<line x1="86" y1="456.00" x2="1010" y2="456.00" class="grid"/>
<text x="74" y="460.00" text-anchor="end" class="tick">10</text>
<rect x="87.00" y="712.50" width="25.18" height="28.50" fill="#f59e0b" opacity="0.82"><title>RotLength [deg]: 0.2564..0.2925&#10;total=2, ok=0, distance=1, branch/incomplete=1</title></rect>
<rect x="87.00" y="684.00" width="25.18" height="28.50" fill="#dc2626" opacity="0.82"><title>RotLength [deg]: 0.2564..0.2925&#10;total=2, ok=0, distance=1, branch/incomplete=1</title></rect>
<rect x="114.18" y="712.50" width="25.18" height="28.50" fill="#94a3b8" opacity="0.82"><title>RotLength [deg]: 0.2925..0.3286&#10;total=2, ok=1, distance=0, branch/incomplete=1</title></rect>
<rect x="114.18" y="684.00" width="25.18" height="28.50" fill="#dc2626" opacity="0.82"><title>RotLength [deg]: 0.2925..0.3286&#10;total=2, ok=1, distance=0, branch/incomplete=1</title></rect>
<rect x="222.88" y="712.50" width="25.18" height="28.50" fill="#94a3b8" opacity="0.82"><title>RotLength [deg]: 0.4368..0.4729&#10;total=2, ok=1, distance=0, branch/incomplete=1</title></rect>
<rect x="222.88" y="684.00" width="25.18" height="28.50" fill="#dc2626" opacity="0.82"><title>RotLength [deg]: 0.4368..0.4729&#10;total=2, ok=1, distance=0, branch/incomplete=1</title></rect>
<rect x="358.76" y="712.50" width="25.18" height="28.50" fill="#94a3b8" opacity="0.82"><title>RotLength [deg]: 0.6172..0.6533&#10;total=2, ok=1, distance=0, branch/incomplete=1</title></rect>
<rect x="358.76" y="684.00" width="25.18" height="28.50" fill="#dc2626" opacity="0.82"><title>RotLength [deg]: 0.6172..0.6533&#10;total=2, ok=1, distance=0, branch/incomplete=1</title></rect>
<rect x="385.94" y="712.50" width="25.18" height="28.50" fill="#94a3b8" opacity="0.82"><title>RotLength [deg]: 0.6533..0.6893&#10;total=2, ok=1, distance=0, branch/incomplete=1</title></rect>
<rect x="385.94" y="684.00" width="25.18" height="28.50" fill="#dc2626" opacity="0.82"><title>RotLength [deg]: 0.6533..0.6893&#10;total=2, ok=1, distance=0, branch/incomplete=1</title></rect>
<rect x="440.29" y="684.00" width="25.18" height="57.00" fill="#94a3b8" opacity="0.82"><title>RotLength [deg]: 0.7254..0.7615&#10;total=4, ok=2, distance=0, branch/incomplete=2</title></rect>
<rect x="440.29" y="627.00" width="25.18" height="57.00" fill="#dc2626" opacity="0.82"><title>RotLength [deg]: 0.7254..0.7615&#10;total=4, ok=2, distance=0, branch/incomplete=2</title></rect>
<rect x="467.47" y="598.50" width="25.18" height="142.50" fill="#94a3b8" opacity="0.82"><title>RotLength [deg]: 0.7615..0.7976&#10;total=10, ok=5, distance=0, branch/incomplete=5</title></rect>
<rect x="467.47" y="456.00" width="25.18" height="142.50" fill="#dc2626" opacity="0.82"><title>RotLength [deg]: 0.7615..0.7976&#10;total=10, ok=5, distance=0, branch/incomplete=5</title></rect>
<rect x="494.65" y="712.50" width="25.18" height="28.50" fill="#f59e0b" opacity="0.82"><title>RotLength [deg]: 0.7976..0.8336&#10;total=2, ok=0, distance=1, branch/incomplete=1</title></rect>
<rect x="494.65" y="684.00" width="25.18" height="28.50" fill="#dc2626" opacity="0.82"><title>RotLength [deg]: 0.7976..0.8336&#10;total=2, ok=0, distance=1, branch/incomplete=1</title></rect>
<rect x="521.82" y="655.50" width="25.18" height="85.50" fill="#94a3b8" opacity="0.82"><title>RotLength [deg]: 0.8336..0.8697&#10;total=6, ok=3, distance=0, branch/incomplete=3</title></rect>
<rect x="521.82" y="570.00" width="25.18" height="85.50" fill="#dc2626" opacity="0.82"><title>RotLength [deg]: 0.8336..0.8697&#10;total=6, ok=3, distance=0, branch/incomplete=3</title></rect>
<rect x="549.00" y="712.50" width="25.18" height="28.50" fill="#94a3b8" opacity="0.82"><title>RotLength [deg]: 0.8697..0.9058&#10;total=1, ok=1, distance=0, branch/incomplete=0</title></rect>
<rect x="576.18" y="712.50" width="25.18" height="28.50" fill="#94a3b8" opacity="0.82"><title>RotLength [deg]: 0.9058..0.9419&#10;total=2, ok=1, distance=0, branch/incomplete=1</title></rect>
<rect x="576.18" y="684.00" width="25.18" height="28.50" fill="#dc2626" opacity="0.82"><title>RotLength [deg]: 0.9058..0.9419&#10;total=2, ok=1, distance=0, branch/incomplete=1</title></rect>
<rect x="603.35" y="684.00" width="25.18" height="57.00" fill="#94a3b8" opacity="0.82"><title>RotLength [deg]: 0.9419..0.9780&#10;total=4, ok=2, distance=0, branch/incomplete=2</title></rect>
<rect x="603.35" y="627.00" width="25.18" height="57.00" fill="#dc2626" opacity="0.82"><title>RotLength [deg]: 0.9419..0.9780&#10;total=4, ok=2, distance=0, branch/incomplete=2</title></rect>
<rect x="630.53" y="712.50" width="25.18" height="28.50" fill="#94a3b8" opacity="0.82"><title>RotLength [deg]: 0.9780..1.0140&#10;total=2, ok=1, distance=0, branch/incomplete=1</title></rect>
<rect x="630.53" y="684.00" width="25.18" height="28.50" fill="#dc2626" opacity="0.82"><title>RotLength [deg]: 0.9780..1.0140&#10;total=2, ok=1, distance=0, branch/incomplete=1</title></rect>
<rect x="684.88" y="684.00" width="25.18" height="57.00" fill="#94a3b8" opacity="0.82"><title>RotLength [deg]: 1.0501..1.0862&#10;total=4, ok=2, distance=0, branch/incomplete=2</title></rect>
<rect x="684.88" y="627.00" width="25.18" height="57.00" fill="#dc2626" opacity="0.82"><title>RotLength [deg]: 1.0501..1.0862&#10;total=4, ok=2, distance=0, branch/incomplete=2</title></rect>
<rect x="712.06" y="712.50" width="25.18" height="28.50" fill="#94a3b8" opacity="0.82"><title>RotLength [deg]: 1.0862..1.1223&#10;total=2, ok=1, distance=0, branch/incomplete=1</title></rect>
<rect x="712.06" y="684.00" width="25.18" height="28.50" fill="#dc2626" opacity="0.82"><title>RotLength [deg]: 1.0862..1.1223&#10;total=2, ok=1, distance=0, branch/incomplete=1</title></rect>
<rect x="739.24" y="712.50" width="25.18" height="28.50" fill="#94a3b8" opacity="0.82"><title>RotLength [deg]: 1.1223..1.1583&#10;total=2, ok=1, distance=0, branch/incomplete=1</title></rect>
<rect x="739.24" y="684.00" width="25.18" height="28.50" fill="#dc2626" opacity="0.82"><title>RotLength [deg]: 1.1223..1.1583&#10;total=2, ok=1, distance=0, branch/incomplete=1</title></rect>
<rect x="766.41" y="712.50" width="25.18" height="28.50" fill="#94a3b8" opacity="0.82"><title>RotLength [deg]: 1.1583..1.1944&#10;total=2, ok=1, distance=0, branch/incomplete=1</title></rect>
<rect x="766.41" y="684.00" width="25.18" height="28.50" fill="#dc2626" opacity="0.82"><title>RotLength [deg]: 1.1583..1.1944&#10;total=2, ok=1, distance=0, branch/incomplete=1</title></rect>
<rect x="820.76" y="712.50" width="25.18" height="28.50" fill="#94a3b8" opacity="0.82"><title>RotLength [deg]: 1.2305..1.2666&#10;total=1, ok=1, distance=0, branch/incomplete=0</title></rect>
<rect x="847.94" y="655.50" width="25.18" height="85.50" fill="#94a3b8" opacity="0.82"><title>RotLength [deg]: 1.2666..1.3026&#10;total=6, ok=3, distance=0, branch/incomplete=3</title></rect>
<rect x="847.94" y="570.00" width="25.18" height="85.50" fill="#dc2626" opacity="0.82"><title>RotLength [deg]: 1.2666..1.3026&#10;total=6, ok=3, distance=0, branch/incomplete=3</title></rect>
<rect x="956.65" y="684.00" width="25.18" height="57.00" fill="#94a3b8" opacity="0.82"><title>RotLength [deg]: 1.4109..1.4470&#10;total=4, ok=2, distance=0, branch/incomplete=2</title></rect>
<rect x="956.65" y="627.00" width="25.18" height="57.00" fill="#dc2626" opacity="0.82"><title>RotLength [deg]: 1.4109..1.4470&#10;total=4, ok=2, distance=0, branch/incomplete=2</title></rect>
<rect x="983.82" y="712.50" width="25.18" height="28.50" fill="#94a3b8" opacity="0.82"><title>RotLength [deg]: 1.4470..1.4830&#10;total=2, ok=1, distance=0, branch/incomplete=1</title></rect>
<rect x="983.82" y="684.00" width="25.18" height="28.50" fill="#dc2626" opacity="0.82"><title>RotLength [deg]: 1.4470..1.4830&#10;total=2, ok=1, distance=0, branch/incomplete=1</title></rect>
<line x1="194.17" y1="456" x2="194.17" y2="741" class="grid"/>
<text x="194.17" y="766" text-anchor="middle" class="tick">0.4</text>
<line x1="344.82" y1="456" x2="344.82" y2="741" class="grid"/>
<text x="344.82" y="766" text-anchor="middle" class="tick">0.6</text>
<line x1="495.48" y1="456" x2="495.48" y2="741" class="grid"/>
<text x="495.48" y="766" text-anchor="middle" class="tick">0.8</text>
<line x1="646.14" y1="456" x2="646.14" y2="741" class="grid"/>
<text x="646.14" y="766" text-anchor="middle" class="tick">1</text>
<line x1="796.80" y1="456" x2="796.80" y2="741" class="grid"/>
<text x="796.80" y="766" text-anchor="middle" class="tick">1.2</text>
<line x1="947.45" y1="456" x2="947.45" y2="741" class="grid"/>
<text x="947.45" y="766" text-anchor="middle" class="tick">1.4</text>
<line x1="86" y1="741" x2="1010" y2="741" class="axis"/>
<line x1="86" y1="456" x2="86" y2="741" class="axis"/>
<text x="548.0" y="795" text-anchor="middle" class="axis-label">RotLength [deg]</text>
<rect x="1038" y="84" width="18" height="18" fill="#94a3b8" opacity="0.82"/>
<text x="1066" y="98" class="legend">OK</text>
<rect x="1038" y="112" width="18" height="18" fill="#f59e0b" opacity="0.82"/>
<text x="1066" y="126" class="legend">distance &gt; limit</text>
<rect x="1038" y="140" width="18" height="18" fill="#dc2626" opacity="0.82"/>
<text x="1066" y="154" class="legend">branch mismatch / incomplete</text>
</svg>